<?xml version="1.0" standalone="no"?>
<!DOCTYPE svg PUBLIC "-//W3C//DTD SVG 20010904//EN"
 "http://www.w3.org/TR/2001/REC-SVG-20010904/DTD/svg10.dtd">
<svg version="1.0" xmlns="http://www.w3.org/2000/svg"
 width="1300.000000pt" height="1300.000000pt" viewBox="0 0 1300.000000 1300.000000"
 preserveAspectRatio="xMidYMid meet">

<g transform="translate(0.000000,1300.000000) scale(0.100000,-0.100000)"
fill="#000000" stroke="none">
<path d="M2838 9463 c6 -2 18 -2 25 0 6 3 1 5 -13 5 -14 0 -19 -2 -12 -5z"/>
<path d="M2745 9439 c-45 -26 -75 -63 -69 -83 4 -15 3 -17 -4 -7 -12 16 -27
-3 -16 -21 4 -6 3 -8 -3 -5 -19 12 -33 -72 -21 -124 6 -27 15 -46 20 -43 4 3
8 -2 8 -11 0 -9 10 -29 21 -43 17 -22 20 -23 15 -6 -4 12 0 28 10 40 15 18 15
18 4 -3 -8 -17 -8 -23 0 -23 7 0 9 -8 5 -20 -5 -15 0 -21 20 -26 20 -5 23 -9
13 -15 -14 -9 7 -14 50 -10 12 1 22 -3 22 -9 0 -6 10 -8 25 -4 15 4 25 2 25
-5 0 -6 7 -8 15 -5 8 4 21 1 28 -4 7 -6 22 -11 32 -11 36 1 149 -12 205 -23
30 -6 76 -11 102 -12 25 0 41 -4 35 -8 -7 -4 4 -8 23 -9 53 -1 122 -9 150 -16
14 -4 36 -7 50 -9 14 -1 27 -3 30 -4 3 -1 8 -2 12 -1 4 0 5 -6 1 -15 -3 -9 -1
-14 7 -12 7 2 15 -3 18 -11 3 -8 0 -11 -7 -7 -13 8 -14 -3 -2 -23 5 -8 14 -10
22 -5 11 6 12 5 2 -7 -9 -11 -8 -22 4 -49 9 -19 15 -42 14 -50 -1 -11 3 -9 15
5 l17 20 -7 -20 c-4 -11 -8 -22 -9 -25 0 -3 5 -24 13 -48 9 -29 16 -39 22 -30
5 9 8 9 8 1 0 -6 3 -20 6 -30 5 -15 4 -15 -5 -3 -17 24 -13 2 9 -40 11 -22 21
-47 21 -57 1 -10 5 -2 9 17 6 29 7 26 7 -23 -1 -38 3 -61 12 -66 7 -5 12 -11
12 -15 -1 -3 -1 -14 0 -23 0 -15 2 -15 9 2 7 17 9 15 9 -12 1 -18 6 -33 12
-33 5 0 8 -4 4 -10 -3 -5 -3 -21 1 -36 7 -26 8 -26 22 -8 14 19 15 19 7 -1
-16 -45 -16 -49 4 -26 24 26 29 15 6 -15 -8 -10 -14 -23 -15 -29 0 -5 4 -5 8
2 5 8 12 3 19 -17 6 -17 7 -28 2 -25 -12 8 1 -26 18 -47 8 -9 12 -21 9 -26 -3
-5 4 -26 16 -48 11 -21 20 -40 18 -42 -2 -3 15 -53 35 -97 7 -16 16 -43 19
-58 4 -15 11 -25 16 -22 6 3 7 -1 4 -9 -3 -9 -1 -16 5 -16 6 0 8 -6 5 -13 -2
-7 2 -27 11 -43 8 -16 15 -34 15 -40 0 -16 28 -26 35 -13 4 5 11 7 16 4 12 -8
12 -35 -1 -35 -5 0 -7 8 -3 18 4 11 3 14 -4 7 -6 -5 -14 -21 -18 -35 -4 -17
-3 -21 3 -12 7 11 10 10 16 -3 8 -23 8 -27 -3 -21 -5 4 -7 -3 -4 -14 3 -11 9
-17 14 -14 5 3 9 -9 9 -25 0 -23 5 -31 18 -31 12 0 13 -3 5 -8 -10 -6 -6 -20
12 -55 14 -25 25 -50 24 -54 -4 -24 3 -45 21 -60 11 -10 20 -22 20 -28 0 -5
-5 -3 -10 5 -14 22 -12 8 5 -36 29 -73 38 -85 57 -81 10 3 21 0 25 -5 3 -6 1
-8 -4 -5 -18 11 -38 -20 -24 -37 7 -8 14 -27 17 -43 3 -15 9 -32 15 -37 5 -6
9 -17 9 -25 0 -9 6 -28 14 -43 8 -15 17 -41 21 -59 5 -23 10 -28 16 -18 6 10
9 3 9 -21 0 -19 7 -48 15 -64 8 -15 15 -36 16 -45 0 -12 2 -12 9 4 7 17 9 14
9 -13 1 -20 5 -31 11 -27 7 4 9 -2 4 -19 -4 -17 -2 -26 6 -26 6 0 8 -5 5 -10
-10 -16 27 -92 38 -77 5 7 6 4 2 -11 -4 -14 3 -43 19 -78 14 -31 26 -64 26
-73 0 -9 7 -26 15 -38 9 -12 14 -26 13 -30 -4 -17 14 -53 24 -47 6 4 8 -1 3
-15 -7 -22 10 -30 18 -8 3 6 5 3 6 -8 1 -68 34 -175 52 -175 11 0 12 13 1 26
-15 17 -33 66 -21 59 21 -13 39 -85 40 -158 0 -9 4 -15 9 -12 6 3 7 -1 4 -9
-3 -8 3 -29 12 -48 10 -18 17 -37 16 -41 -1 -5 2 -6 8 -2 6 4 10 -7 10 -27 0
-18 4 -28 8 -23 19 26 30 13 27 -33 -3 -28 1 -59 10 -77 l15 -30 -4 27 c-2 16
1 25 6 22 6 -4 8 -21 6 -39 -2 -20 0 -31 6 -28 5 4 7 -1 3 -10 -7 -19 24 -102
33 -88 3 6 7 -4 7 -22 1 -17 12 -54 24 -82 13 -27 22 -57 20 -64 -2 -12 0 -13
12 -2 13 10 15 9 10 -11 -4 -18 -3 -20 6 -8 8 11 9 6 6 -23 -4 -28 -2 -36 7
-31 8 5 9 2 5 -10 -4 -10 -1 -24 8 -33 8 -8 13 -18 10 -23 -3 -4 1 -23 9 -41
15 -34 15 -34 24 -10 9 24 9 24 14 3 4 -12 2 -20 -2 -17 -12 7 -8 -48 4 -56 5
-4 9 -19 9 -33 0 -19 4 -26 14 -22 8 3 11 1 8 -4 -4 -6 -3 -24 0 -41 5 -22 10
-28 18 -20 7 7 7 14 -2 25 -8 10 -9 16 -1 21 5 3 10 -1 10 -9 0 -9 4 -16 8
-16 4 0 8 -9 9 -20 1 -11 -3 -19 -9 -17 -6 1 -13 -4 -16 -12 -3 -9 0 -11 8 -6
10 6 12 2 8 -13 -4 -12 -2 -20 2 -17 5 3 11 1 15 -5 3 -5 1 -10 -4 -10 -6 0
-11 -5 -11 -11 0 -5 4 -8 9 -4 6 3 13 -11 17 -32 5 -31 28 -59 117 -150 105
-107 110 -114 111 -156 1 -33 -6 -52 -26 -79 -15 -20 -24 -39 -20 -43 4 -5 -1
-5 -10 -2 -16 6 -17 4 -1 -36 21 -55 22 -55 39 -33 13 19 14 18 11 -11 -2 -16
-7 -35 -11 -42 -4 -6 -2 -11 3 -11 6 0 11 5 11 12 0 6 3 9 6 6 3 -4 1 -15 -4
-25 -10 -20 -5 -46 8 -38 4 3 6 -4 3 -15 -3 -12 0 -20 6 -20 7 0 11 -6 9 -12
-1 -7 5 -26 15 -43 9 -16 16 -25 17 -20 0 6 6 -1 13 -15 14 -26 16 -27 57 -16
l25 7 -23 -14 -23 -13 28 -14 c23 -12 222 -16 1138 -23 678 -5 1132 -5 1168 0
31 5 57 6 57 1 0 -12 82 -3 109 12 18 9 30 9 59 -3 30 -12 120 -15 472 -16
507 -1 584 4 644 45 53 37 96 119 96 183 0 61 -38 141 -84 176 -63 48 -96 54
-293 55 l-183 0 -17 -27 c-27 -43 -42 -55 -55 -47 -7 4 -10 4 -6 -1 11 -12
-11 -35 -28 -28 -8 3 -14 0 -14 -6 0 -6 6 -11 13 -11 8 0 7 -3 -3 -9 -15 -10
-30 -6 -30 9 0 16 62 70 81 70 16 0 17 3 7 25 -10 22 -17 25 -69 25 -37 0 -59
-4 -62 -12 -4 -10 -7 -10 -18 -1 -10 10 -297 13 -1366 13 -744 0 -1353 -3
-1353 -8 0 -4 21 -6 48 -5 l47 2 -50 -8 c-51 -8 -64 -4 -69 20 -9 50 -29 75
-39 46 -2 -6 -2 0 0 16 3 18 0 27 -9 27 -10 0 -10 2 1 9 12 7 10 15 -6 42 -11
19 -18 40 -15 48 3 9 0 11 -7 6 -8 -4 -11 -2 -10 6 5 23 -11 70 -21 64 -5 -3
-8 7 -8 23 1 16 -19 69 -43 118 -47 96 -57 118 -40 94 14 -19 14 -9 0 27 -6
15 -9 28 -7 29 2 0 -3 9 -11 18 -8 10 -10 20 -5 25 5 4 862 5 1904 2 1042 -3
1919 -2 1949 2 119 17 239 129 290 270 20 55 82 252 124 392 8 28 51 165 95
305 44 140 92 297 107 348 l28 93 -39 42 -39 42 41 -39 c42 -38 42 -38 49 -15
11 38 73 239 130 424 51 163 102 329 160 519 21 67 26 101 22 140 -12 117 -88
216 -213 277 l-69 34 -2749 2 c-2184 2 -2752 0 -2758 -10 -6 -9 -8 -9 -8 1 0
6 -10 12 -22 12 l-23 -1 24 -19 c13 -11 19 -20 14 -20 -6 0 -18 9 -28 20 -11
12 -31 20 -52 20 -18 0 -33 5 -33 11 0 5 -5 7 -12 3 -7 -4 -8 -3 -4 4 4 6 0
24 -8 39 -11 21 -15 23 -16 10 0 -10 -4 -16 -10 -12 -6 4 -6 15 0 31 12 32 12
37 0 29 -6 -3 -7 1 -4 9 3 9 1 16 -5 16 -6 0 -8 7 -4 17 4 11 3 14 -5 9 -13
-8 -14 -7 -18 43 -2 33 -20 55 -36 45 -4 -3 -4 6 2 20 10 27 4 59 -10 51 -4
-3 -8 1 -7 8 1 33 -4 48 -14 41 -8 -4 -9 1 -4 16 5 17 4 21 -6 15 -8 -6 -11
-4 -7 6 3 8 -1 31 -9 50 -8 18 -17 29 -20 22 -2 -7 1 -22 7 -33 6 -12 9 -24 6
-27 -3 -3 -11 7 -18 21 -9 22 -9 32 1 48 9 14 9 18 1 13 -9 -5 -10 -1 -5 14 7
22 -10 30 -18 9 -3 -7 -6 1 -6 17 -1 53 -5 75 -13 75 -4 0 -8 5 -8 11 0 6 -7
17 -15 25 -8 9 -15 20 -15 27 0 6 7 2 15 -9 12 -15 11 -10 -2 21 -10 22 -24
49 -31 60 -14 20 -14 20 -8 -1 4 -11 -1 -28 -10 -40 -8 -10 -12 -13 -8 -5 12
23 13 85 2 98 -5 7 -7 17 -3 23 4 6 2 17 -5 25 -6 7 -13 26 -16 42 -3 15 -9
32 -15 37 -5 6 -9 18 -9 29 0 11 -4 15 -11 11 -8 -4 -9 1 -4 16 5 15 4 20 -4
16 -7 -5 -11 2 -11 19 0 44 -74 165 -102 165 -5 0 -16 7 -25 16 -9 8 -23 12
-31 9 -8 -3 -18 -1 -22 5 -4 6 -20 8 -38 4 -17 -4 -29 -10 -26 -15 3 -5 10 -6
16 -3 6 4 8 3 5 -3 -8 -13 37 -56 48 -46 4 5 6 4 3 -2 -7 -13 17 -36 28 -27 4
4 4 2 1 -4 -8 -14 36 -57 48 -47 4 5 5 2 1 -4 -4 -7 -3 -13 3 -13 5 0 12 8 15
18 4 13 4 12 3 -3 -2 -20 6 -32 51 -80 39 -42 4 -27 -40 17 -24 23 -46 43 -50
44 -5 1 -14 2 -20 3 -10 1 -10 3 0 10 10 6 10 10 -3 21 -12 10 -15 10 -15 -1
0 -11 -2 -11 -9 1 -6 8 -8 17 -5 21 4 7 -26 36 -33 32 -1 -2 -9 -3 -15 -3 -10
0 -10 2 0 9 10 6 10 10 -3 21 -12 10 -15 10 -15 -1 0 -11 -2 -11 -9 1 -6 8 -8
17 -5 21 7 11 -49 43 -71 41 -17 -2 -18 -1 -5 8 12 9 11 10 -6 5 -12 -3 -33
-1 -47 4 -15 6 -38 7 -55 2 -16 -5 -35 -5 -42 -1 -10 6 -8 9 6 13 10 2 -1 6
-26 8 -72 4 -75 4 -85 11 -12 7 -124 21 -185 23 -25 0 -50 3 -55 7 -6 3 -26 9
-45 12 -26 5 -31 4 -20 -3 8 -6 10 -11 5 -11 -6 0 -16 5 -22 11 -17 17 -262
23 -288 8z m19 -13 c-10 -8 -21 -12 -24 -10 -5 6 21 24 34 24 6 0 1 -6 -10
-14z m149 7 c-7 -2 -19 -2 -25 0 -7 3 -2 5 12 5 14 0 19 -2 13 -5z m15 -20
c-10 -2 -26 -2 -35 0 -10 3 -2 5 17 5 19 0 27 -2 18 -5z m69 1 c-3 -3 -12 -4
-19 -1 -8 3 -5 6 6 6 11 1 17 -2 13 -5z m-277 -18 c0 -2 -7 -9 -15 -16 -13
-11 -14 -10 -9 4 5 14 24 23 24 12z m697 -32 c-3 -3 -12 -4 -19 -1 -8 3 -5 6
6 6 11 1 17 -2 13 -5z m103 -25 c-44 -12 -67 -9 -30 5 19 7 39 10 45 7 5 -3
-1 -8 -15 -12z m-806 -5 c3 -8 2 -12 -4 -9 -6 3 -10 10 -10 16 0 14 7 11 14
-7z m869 -1 c-7 -2 -19 -2 -25 0 -7 3 -2 5 12 5 14 0 19 -2 13 -5z m243 -51
c-10 -2 -22 0 -28 6 -6 6 0 7 19 4 21 -5 23 -7 9 -10z m34 -32 c6 -11 7 -20 2
-20 -6 0 -12 9 -15 20 -3 11 -3 20 -1 20 2 0 8 -9 14 -20z m-1223 -12 c-3 -8
-6 -5 -6 6 -1 11 2 17 5 13 3 -3 4 -12 1 -19z m1253 -28 c0 -5 -2 -10 -4 -10
-3 0 -8 5 -11 10 -3 6 -1 10 4 10 6 0 11 -4 11 -10z m-1213 -82 c-3 -8 -6 -5
-6 6 -1 11 2 17 5 13 3 -3 4 -12 1 -19z m1181 -33 c-3 -3 -9 2 -12 12 -6 14
-5 15 5 6 7 -7 10 -15 7 -18z m-981 -31 c-3 -3 -12 -4 -19 -1 -8 3 -5 6 6 6
11 1 17 -2 13 -5z m18 -24 c13 -5 14 -9 5 -9 -8 0 -24 4 -35 9 -13 5 -14 9 -5
9 8 0 24 -4 35 -9z m528 -87 c-7 -2 -19 -2 -25 0 -7 3 -2 5 12 5 14 0 19 -2
13 -5z m599 -175 c-7 -7 -12 -8 -12 -2 0 14 12 26 19 19 2 -3 -1 -11 -7 -17z
m-288 -194 c3 -8 2 -12 -4 -9 -6 3 -10 10 -10 16 0 14 7 11 14 -7z m363 -26
c-3 -7 -5 -2 -5 12 0 14 2 19 5 13 2 -7 2 -19 0 -25z m-350 -70 c-3 -8 -6 -5
-6 6 -1 11 2 17 5 13 3 -3 4 -12 1 -19z m447 -113 c-4 -8 -8 -15 -10 -15 -2 0
-4 7 -4 15 0 8 4 15 10 15 5 0 7 -7 4 -15z m-377 -37 c-3 -8 -6 -5 -6 6 -1 11
2 17 5 13 3 -3 4 -12 1 -19z m446 -143 c-3 -9 -8 -14 -10 -11 -3 3 -2 9 2 15
9 16 15 13 8 -4z m-383 -90 c7 -9 8 -15 2 -15 -5 0 -12 7 -16 15 -3 8 -4 15
-2 15 2 0 9 -7 16 -15z m260 -29 c0 -3 -4 -8 -10 -11 -5 -3 -10 -1 -10 4 0 6
5 11 10 11 6 0 10 -2 10 -4z m467 -2 c-3 -3 -12 -4 -19 -1 -8 3 -5 6 6 6 11 1
17 -2 13 -5z m38 -4 c3 -6 -1 -7 -9 -4 -18 7 -21 14 -7 14 6 0 13 -4 16 -10z
m-732 -35 c-3 -9 -8 -14 -10 -11 -3 3 -2 9 2 15 9 16 15 13 8 -4z m202 -2 c-5
-10 -10 -33 -13 -51 -2 -18 -8 -34 -12 -37 -8 -5 3 66 14 83 4 7 2 12 -3 12
-6 0 -11 -5 -11 -12 0 -6 -3 -9 -6 -5 -9 9 6 27 23 27 11 0 13 -5 8 -17z m430
-13 c3 -5 1 -10 -4 -10 -6 0 -11 5 -11 10 0 6 2 10 4 10 3 0 8 -4 11 -10z
m-515 -80 c0 -5 -4 -10 -10 -10 -5 0 -10 5 -10 10 0 6 5 10 10 10 6 0 10 -4
10 -10z m-40 -34 c0 -14 -3 -27 -7 -29 -5 -3 -8 8 -8 24 0 16 3 29 8 29 4 0 7
-11 7 -24z m120 5 c-5 -11 -14 -22 -19 -26 -5 -3 -9 -32 -7 -64 2 -57 3 -61
61 -120 55 -57 60 -60 77 -44 10 9 18 29 18 44 0 35 56 97 97 108 31 8 63 4
63 -8 0 -14 -178 -181 -193 -181 -8 0 -46 29 -83 65 -62 61 -66 68 -61 100 3
19 1 37 -4 40 -17 11 -9 49 18 77 31 32 48 37 33 9z m-153 -33 c-3 -8 -6 -5
-6 6 -1 11 2 17 5 13 3 -3 4 -12 1 -19z m253 18 c0 -2 -8 -10 -17 -17 -16 -13
-17 -12 -4 4 13 16 21 21 21 13z m20 -25 c-12 -24 -30 -36 -30 -22 0 6 5 11
11 11 5 0 8 4 5 9 -5 8 3 15 22 20 1 1 -2 -8 -8 -18z m-199 -22 c-5 -13 -10
-19 -10 -12 -1 15 10 45 15 40 3 -2 0 -15 -5 -28z m259 -4 c0 -8 -2 -15 -4
-15 -2 0 -6 7 -10 15 -3 8 -1 15 4 15 6 0 10 -7 10 -15z m-140 -5 c0 -5 -4
-10 -10 -10 -5 0 -10 5 -10 10 0 6 5 10 10 10 6 0 10 -4 10 -10z m53 -15 c20
-8 49 -15 64 -15 l28 -1 -24 -20 c-29 -24 -67 -19 -93 13 -17 18 -23 38 -14
38 2 0 20 -7 39 -15z m-79 -21 c3 -8 2 -12 -4 -9 -6 3 -10 10 -10 16 0 14 7
11 14 -7z m-81 -14 c-3 -11 -7 -20 -9 -20 -2 0 -4 9 -4 20 0 11 4 20 9 20 5 0
7 -9 4 -20z m2151 -12 c14 -90 27 -185 41 -298 8 -69 17 -140 20 -157 l6 -33
-262 0 c-247 0 -261 -1 -248 -17 13 -17 13 -17 -7 0 -19 16 -61 17 -567 17
-482 0 -546 2 -541 15 6 14 -6 20 -30 16 -5 -1 -5 6 -1 16 11 30 11 38 -3 35
-8 -1 -11 2 -8 7 3 5 3 23 0 41 -5 23 -9 28 -16 18 -7 -9 -8 -7 -5 10 3 12 1
22 -5 22 -5 0 -6 5 -2 12 5 8 2 9 -9 5 -17 -7 -24 8 -8 17 10 6 -20 105 -48
156 -10 19 -21 51 -25 71 -4 21 -13 42 -21 49 -8 7 -12 16 -9 21 3 5 380 9
874 9 l869 0 5 -32z m1784 0 c-3 -18 -18 -135 -34 -260 l-29 -228 -677 0
c-553 0 -678 2 -678 13 0 7 -7 65 -16 128 -8 63 -23 174 -33 247 l-17 132 744
0 744 0 -4 -32z m1948 10 c20 -19 23 -3 -67 -295 l-62 -203 -235 0 -235 0 19
-22 19 -23 -26 23 -25 22 -547 0 c-301 0 -547 4 -547 8 0 16 60 468 65 490 l5
22 810 -2 c742 -3 811 -4 826 -20z m-5456 -63 c0 -5 -5 -3 -10 5 -5 8 -10 20
-10 25 0 6 5 3 10 -5 5 -8 10 -19 10 -25z m-45 15 c3 -5 1 -10 -4 -10 -6 0
-11 5 -11 10 0 6 2 10 4 10 3 0 8 -4 11 -10z m-208 -36 c3 -8 0 -21 -6 -27 -9
-9 -11 -8 -5 7 4 11 2 21 -7 27 -10 6 -11 9 -1 9 7 0 15 -7 19 -16z m-97 -46
c0 -14 -19 1 -31 25 -12 22 -12 22 10 3 11 -11 21 -23 21 -28z m200 18 c0 -2
-8 -10 -17 -17 -16 -13 -17 -12 -4 4 13 16 21 21 21 13z m187 -58 c-3 -8 -6
-5 -6 6 -1 11 2 17 5 13 3 -3 4 -12 1 -19z m23 -82 c0 -26 -6 -18 -14 19 -5
22 -4 26 4 15 5 -8 10 -24 10 -34z m-32 -7 c-3 -20 -5 -19 -9 9 -3 20 -2 29 4
23 5 -5 7 -19 5 -32z m-349 -6 c0 -25 -1 -25 -8 -8 -5 11 -7 23 -4 28 8 14 13
7 12 -20z m441 -117 c0 -3 -4 -8 -10 -11 -5 -3 -10 -1 -10 4 0 6 5 11 10 11 6
0 10 -2 10 -4z m-390 -128 c0 -10 3 -9 10 2 11 17 13 9 4 -15 -6 -14 -10 -12
-25 12 -23 34 -25 50 -4 29 8 -8 15 -21 15 -28z m40 38 c0 -3 -4 -8 -10 -11
-5 -3 -10 -1 -10 4 0 6 5 11 10 11 6 0 10 -2 10 -4z m267 -22 c-3 -3 -12 -4
-19 -1 -8 3 -5 6 6 6 11 1 17 -2 13 -5z m-79 -42 c-13 -16 -25 -24 -27 -19 -2
6 6 19 19 29 32 26 35 22 8 -10z m1388 -44 l29 -33 -32 29 c-31 28 -38 36 -30
36 2 0 16 -15 33 -32z m3594 -3 c19 -19 32 -35 29 -35 -3 0 -20 16 -39 35 -19
19 -32 35 -29 35 3 0 20 -16 39 -35z m-2170 21 c0 -2 -8 -10 -17 -17 -16 -13
-17 -12 -4 4 13 16 21 21 21 13z m-1344 -98 l29 -33 -32 29 c-31 28 -38 36
-30 36 2 0 16 -15 33 -32z m3594 -3 c19 -19 32 -35 29 -35 -3 0 -20 16 -39 35
-19 19 -32 35 -29 35 3 0 20 -16 39 -35z m-2330 21 c0 -2 -8 -10 -17 -17 -16
-13 -17 -12 -4 4 13 16 21 21 21 13z m-2803 -58 c-3 -7 -5 -2 -5 12 0 14 2 19
5 13 2 -7 2 -19 0 -25z m-37 -43 c0 -5 -5 -3 -10 5 -5 8 -10 20 -10 25 0 6 5
3 10 -5 5 -8 10 -19 10 -25z m1656 3 l29 -33 -32 29 c-31 28 -38 36 -30 36 2
0 16 -15 33 -32z m3594 -3 c19 -19 32 -35 29 -35 -3 0 -20 16 -39 35 -19 19
-32 35 -29 35 3 0 20 -16 39 -35z m-2490 21 c0 -2 -8 -10 -17 -17 -16 -13 -17
-12 -4 4 13 16 21 21 21 13z m-2790 -16 c0 -5 -4 -10 -10 -10 -5 0 -10 5 -10
10 0 6 5 10 10 10 6 0 10 -4 10 -10z m155 -48 c-7 -8 -35 13 -35 26 0 13 3 12
19 -4 10 -10 17 -20 16 -22z m85 -28 c0 -2 -11 -4 -25 -4 -14 0 -25 4 -25 9 0
4 11 6 25 3 14 -2 25 -6 25 -8z m1770 13 c0 -2 9 -70 21 -152 19 -141 22 -152
52 -185 26 -28 27 -30 5 -11 l-28 24 0 -24 c0 -13 7 -69 15 -124 8 -55 15
-106 15 -112 0 -10 -146 -13 -700 -13 -610 0 -700 2 -700 15 0 16 -46 125 -53
125 -2 0 -2 -12 1 -27 2 -16 2 -26 -1 -23 -3 3 -8 28 -11 55 -3 28 -10 64 -15
80 -20 63 -50 137 -61 150 -7 8 -8 20 -4 27 5 8 1 8 -11 -2 -17 -14 -18 -14
-6 8 6 12 8 22 2 22 -5 0 -12 7 -15 16 -3 8 -2 12 4 9 18 -11 -13 49 -37 73
-26 25 -32 42 -8 22 17 -14 20 -3 6 20 -6 8 -7 18 -5 22 5 7 1534 12 1534 5z
m1570 -6 c0 -15 -70 -546 -75 -569 l-5 -22 -553 2 -552 3 -12 85 c-19 137 -23
151 -36 143 -9 -5 -9 -4 0 8 9 12 8 46 -7 159 -11 80 -20 157 -20 173 l0 27
630 0 c347 0 630 -4 630 -9z m1825 -22 c-6 -27 -2 -37 31 -73 l39 -41 -41 38
-41 38 -21 -63 c-11 -35 -37 -117 -57 -183 -20 -66 -48 -157 -62 -202 l-26
-83 -708 0 c-390 0 -709 4 -709 9 0 15 70 535 76 564 l6 27 760 0 760 0 -7
-31z m-4992 4 c-7 -2 -21 -2 -30 0 -10 3 -4 5 12 5 17 0 24 -2 18 -5z m-316
-125 c-2 -13 -4 -5 -4 17 -1 22 1 32 4 23 2 -10 2 -28 0 -40z m358 21 c11 -17
-1 -21 -15 -4 -8 9 -8 15 -2 15 6 0 14 -5 17 -11z m5065 -54 c19 -19 32 -35
29 -35 -3 0 -20 16 -39 35 -19 19 -32 35 -29 35 3 0 20 -16 39 -35z m-4970
-58 c0 -7 -4 -6 -10 3 -8 12 -10 12 -10 1 0 -8 -3 -12 -6 -8 -9 9 6 28 17 22
5 -4 9 -12 9 -18z m-16 -67 c-6 -5 -24 21 -24 34 0 6 6 1 14 -10 8 -10 12 -21
10 -24z m-364 -95 c0 -5 -5 -3 -10 5 -5 8 -10 20 -10 25 0 6 5 3 10 -5 5 -8
10 -19 10 -25z m2112 -28 l-52 -53 20 -22 20 -22 -22 20 c-22 20 -22 20 -48
-2 l-25 -22 22 24 23 24 -48 51 -47 50 50 -48 51 -47 49 50 c27 27 52 50 54
50 3 0 -18 -24 -47 -53z m-1674 -68 c-3 -20 -5 -19 -9 9 -3 20 -2 29 4 23 5
-5 7 -19 5 -32z m-371 25 c-3 -3 -12 -4 -19 -1 -8 3 -5 6 6 6 11 1 17 -2 13
-5z m-17 -34 c0 -5 -2 -10 -4 -10 -3 0 -8 5 -11 10 -3 6 -1 10 4 10 6 0 11 -4
11 -10z m47 -42 c-3 -7 -5 -2 -5 12 0 14 2 19 5 13 2 -7 2 -19 0 -25z m1903 9
c0 -2 -17 -19 -37 -38 l-38 -34 34 38 c33 34 41 42 41 34z m156 -39 l29 -33
-32 29 c-31 28 -38 36 -30 36 2 0 16 -15 33 -32z m-1751 -18 c-3 -5 -10 -10
-16 -10 -5 0 -9 5 -9 10 0 6 7 10 16 10 8 0 12 -4 9 -10z m42 4 c-3 -3 -12 -4
-19 -1 -8 3 -5 6 6 6 11 1 17 -2 13 -5z m1473 -27 c0 -2 -17 -19 -37 -38 l-38
-34 34 38 c33 34 41 42 41 34z m-1572 -27 c-7 -11 -16 -20 -20 -20 -5 0 -8
-10 -8 -22 0 -13 -5 -30 -10 -38 -7 -12 -10 -8 -10 15 0 17 10 42 23 57 26 32
43 37 25 8z m1887 -10 c10 -11 16 -20 13 -20 -3 0 -13 9 -23 20 -10 11 -16 20
-13 20 3 0 13 -9 23 -20z m-395 -43 c0 -2 -17 -19 -37 -38 l-38 -34 34 38 c33
34 41 42 41 34z m-1667 -27 c-3 -12 -8 -19 -11 -16 -5 6 5 36 12 36 2 0 2 -9
-1 -20z m2142 -10 c10 -11 16 -20 13 -20 -3 0 -13 9 -23 20 -10 11 -16 20 -13
20 3 0 13 -9 23 -20z m-1995 -65 c0 -17 -2 -17 -10 -5 -5 8 -10 24 -10 35 0
17 2 17 10 5 5 -8 10 -24 10 -35z m1440 22 c0 -2 -17 -19 -37 -38 l-38 -34 34
38 c33 34 41 42 41 34z m-1483 -39 c-3 -8 -6 -5 -6 6 -1 11 2 17 5 13 3 -3 4
-12 1 -19z m2118 2 c10 -11 16 -20 13 -20 -3 0 -13 9 -23 20 -10 11 -16 20
-13 20 3 0 13 -9 23 -20z m-2040 -40 c10 -11 16 -20 13 -20 -3 0 -13 9 -23 20
-10 11 -16 20 -13 20 3 0 13 -9 23 -20z m1310 -20 c-18 -20 -17 -20 138 -20
l156 0 6 -32 c3 -18 12 -89 21 -158 8 -69 22 -167 29 -219 8 -52 12 -98 9
-103 -8 -12 -1178 1 -1182 13 -2 5 -45 10 -95 11 l-92 2 90 6 c50 3 84 7 77 8
-7 1 -11 6 -7 11 3 6 -6 33 -19 62 -14 28 -23 57 -19 63 5 7 2 7 -8 -1 -12 -9
-14 -4 -16 30 -2 23 -7 43 -12 45 -6 2 -7 10 -4 18 3 8 0 14 -6 14 -7 0 -11 6
-9 13 4 21 -13 58 -24 51 -6 -4 -8 1 -3 16 5 15 3 20 -3 16 -12 -7 -26 29 -17
44 3 5 1 10 -5 10 -7 0 -10 6 -7 14 3 8 -3 23 -13 34 -17 17 -17 21 -4 26 9 3
235 6 503 6 475 0 488 1 506 20 10 11 20 20 23 20 3 0 -3 -9 -13 -20z m1218
-20 c224 0 407 -3 407 -7 0 -20 -58 -454 -66 -490 l-4 -23 -440 0 c-247 0
-441 4 -444 9 -6 9 -66 460 -66 493 0 16 11 18 96 18 90 0 96 1 83 18 -13 16
-13 16 7 0 19 -17 54 -18 427 -18z m-2478 0 c3 -5 -1 -10 -9 -10 -9 0 -16 5
-16 10 0 6 4 10 9 10 6 0 13 -4 16 -10z m4555 -9 c0 -4 -14 -53 -31 -107 -78
-251 -113 -351 -131 -376 l-19 -28 -625 0 c-388 0 -624 4 -624 10 0 11 58 433
65 478 l6 32 679 0 c374 0 680 -4 680 -9z m-4497 -8 c-7 -2 -21 -2 -30 0 -10
3 -4 5 12 5 17 0 24 -2 18 -5z m100 0 c-13 -2 -33 -2 -45 0 -13 2 -3 4 22 4
25 0 35 -2 23 -4z m54 1 c-3 -3 -12 -4 -19 -1 -8 3 -5 6 6 6 11 1 17 -2 13 -5z
m-49 -21 c-10 -2 -28 -2 -40 0 -13 2 -5 4 17 4 22 1 32 -1 23 -4z m4582 -178
c-41 -41 -77 -75 -79 -75 -3 0 28 34 69 75 41 41 77 75 79 75 3 0 -28 -34 -69
-75z m-4444 9 c-4 -9 -9 -15 -11 -12 -3 3 -3 13 1 22 4 9 9 15 11 12 3 -3 3
-13 -1 -22z m-377 -75 c1 8 3 12 6 9 3 -3 2 -13 -1 -22 -5 -14 -9 -15 -15 -4
-5 7 -8 22 -8 33 1 16 2 16 9 -5 4 -14 8 -19 9 -11z m4731 -22 c0 -2 -17 -19
-37 -38 l-38 -34 34 38 c33 34 41 42 41 34z m-4282 -88 c-3 -8 -7 -3 -11 10
-4 17 -3 21 5 13 5 -5 8 -16 6 -23z m4202 8 c0 -2 -17 -19 -37 -38 l-38 -34
34 38 c33 34 41 42 41 34z m-4600 -83 c0 -8 -4 -12 -10 -9 -5 3 -10 10 -10 16
0 5 5 9 10 9 6 0 10 -7 10 -16z m4520 3 c0 -2 -17 -19 -37 -38 l-38 -34 34 38
c33 34 41 42 41 34z m-4503 -29 c-3 -8 -6 -5 -6 6 -1 11 2 17 5 13 3 -3 4 -12
1 -19z m5 -27 c8 11 9 11 6 1 -4 -16 -22 -18 -24 -2 -2 7 -1 6 3 -1 4 -8 8 -7
15 2z m178 -23 c-8 -7 -20 -20 -28 -28 -12 -13 -13 -13 -6 0 12 25 26 40 37
40 6 0 5 -6 -3 -12z m530 9 c0 -2 -15 -16 -32 -33 l-33 -29 29 33 c28 30 36
37 36 29z m1925 -27 c10 -11 16 -20 13 -20 -3 0 -13 9 -23 20 -10 11 -16 20
-13 20 3 0 13 -9 23 -20z m1785 17 c0 -2 -17 -19 -37 -38 l-38 -34 34 38 c33
34 41 42 41 34z m-4280 -69 c0 -18 -2 -20 -9 -8 -6 8 -7 18 -5 22 9 14 14 9
14 -14z m500 9 c0 -2 -17 -19 -37 -38 l-38 -34 34 38 c33 34 41 42 41 34z
m3700 -20 c0 -2 -15 -16 -32 -33 l-33 -29 29 33 c28 30 36 37 36 29z m-4211
-82 c0 -5 -4 -3 -9 5 -5 8 -9 22 -9 30 0 16 17 -16 18 -35z m-68 -8 c-10 -9
-11 -8 -5 6 3 10 9 15 12 12 3 -3 0 -11 -7 -18z m174 -107 c3 -6 -1 -7 -9 -4
-18 7 -21 14 -7 14 6 0 13 -4 16 -10z m285 -17 c0 -13 -3 -14 -8 -6 -5 8 -48
13 -132 16 l-125 3 133 2 c120 2 132 0 132 -15z m30 2 c0 -8 -2 -15 -4 -15 -2
0 -6 7 -10 15 -3 8 -1 15 4 15 6 0 10 -7 10 -15z m-383 -47 c-3 -8 -6 -5 -6 6
-1 11 2 17 5 13 3 -3 4 -12 1 -19z m452 -141 c0 -9 -2 -8 -6 1 -2 6 -10 9 -15
6 -7 -4 -8 -2 -4 5 9 13 26 5 25 -12z m31 -60 c0 -4 -7 -2 -15 7 -8 8 -15 21
-15 28 1 14 30 -20 30 -35z m-53 1 c-3 -8 -6 -5 -6 6 -1 11 2 17 5 13 3 -3 4
-12 1 -19z m-347 -33 c6 3 10 -3 10 -14 0 -21 0 -21 -25 1 -26 23 -36 39 -10
18 8 -6 19 -9 25 -5z m80 -59 c0 -2 -7 -7 -16 -10 -8 -3 -12 -2 -9 4 6 10 25
14 25 6z m5 -26 c-3 -5 -12 -10 -18 -10 -7 0 -6 4 3 10 19 12 23 12 15 0z
m342 -22 c-3 -8 -6 -5 -6 6 -1 11 2 17 5 13 3 -3 4 -12 1 -19z m21 -43 c-3 -3
-9 2 -12 12 -6 14 -5 15 5 6 7 -7 10 -15 7 -18z m-283 -18 c1 -14 -3 -23 -8
-20 -4 3 -6 12 -2 21 3 8 0 19 -7 24 -10 7 -9 9 2 5 8 -2 15 -15 15 -30z m358
-110 c3 -8 -1 -14 -8 -14 -7 0 -11 6 -8 14 3 7 6 13 8 13 2 0 5 -6 8 -13z m-3
-37 c0 -5 -2 -10 -4 -10 -3 0 -8 5 -11 10 -3 6 -1 10 4 10 6 0 11 -4 11 -10z
m2638 -12 c16 -16 15 -28 -3 -28 -8 0 -15 6 -16 13 0 7 -2 8 -5 1 -2 -6 -19
-8 -36 -6 -29 4 -30 6 -13 18 23 17 57 18 73 2z m-2595 -25 c-7 -2 -19 -2 -25
0 -7 3 -2 5 12 5 14 0 19 -2 13 -5z m2520 -19 c-3 -8 -12 -13 -19 -10 -7 3
-11 0 -9 -7 3 -7 -6 -20 -19 -29 -33 -24 -42 0 -13 36 23 29 71 37 60 10z
m112 -4 c3 -11 -5 -42 -20 -76 -24 -52 -25 -58 -10 -80 8 -13 20 -24 25 -24 5
0 29 21 54 48 34 36 48 44 57 35 6 -6 8 -17 4 -23 -6 -9 -10 -9 -17 1 -7 10
-8 9 -4 -5 5 -14 -4 -30 -31 -58 -20 -21 -43 -38 -49 -38 -7 0 -14 -5 -16 -11
-2 -7 -18 3 -36 21 -24 23 -31 38 -27 54 5 17 4 18 -4 6 -9 -13 -11 -13 -11 2
0 23 21 68 30 63 4 -2 8 17 9 42 2 58 32 86 46 43z m-3028 -42 c-3 -7 -5 -2
-5 12 0 14 2 19 5 13 2 -7 2 -19 0 -25z m-24 -18 c-3 -12 -8 -19 -11 -16 -5 6
5 36 12 36 2 0 2 -9 -1 -20z m2815 -47 c9 -9 17 -23 17 -32 0 -9 8 -16 18 -16
9 0 27 -11 40 -25 13 -14 42 -41 65 -60 44 -36 52 -54 28 -63 -10 -4 -12 0 -8
16 5 20 4 20 -11 8 -15 -12 -23 -7 -67 38 -47 48 -63 70 -40 56 6 -3 10 -1 10
5 0 7 -7 9 -17 6 -10 -4 -23 1 -35 14 -10 11 -25 20 -33 20 -18 0 -20 21 -3
38 15 15 16 15 36 -5z m42 -33 c0 -5 -4 -10 -10 -10 -5 0 -10 5 -10 10 0 6 5
10 10 10 6 0 10 -4 10 -10z m-2782 -125 c-3 -3 -9 2 -12 12 -6 14 -5 15 5 6 7
-7 10 -15 7 -18z m2688 -10 c25 -19 14 -19 -22 0 -16 8 -22 15 -13 15 8 0 24
-7 35 -15z m-2543 -62 c-7 -2 -19 -2 -25 0 -7 3 -2 5 12 5 14 0 19 -2 13 -5z"/>
<path d="M8276 4571 c-4 -7 -5 -15 -2 -18 9 -9 19 4 14 18 -4 11 -6 11 -12 0z"/>
<path d="M8353 4443 c-12 -13 -19 -23 -14 -23 10 0 46 39 40 43 -2 2 -14 -7
-26 -20z"/>
<path d="M8270 4411 c0 -5 5 -13 10 -16 6 -3 10 -2 10 4 0 5 -4 13 -10 16 -5
3 -10 2 -10 -4z"/>
<path d="M8040 4480 c0 -5 5 -10 11 -10 5 0 7 5 4 10 -3 6 -8 10 -11 10 -2 0
-4 -4 -4 -10z"/>
<path d="M8125 4400 c3 -5 11 -10 16 -10 6 0 7 5 4 10 -3 6 -11 10 -16 10 -6
0 -7 -4 -4 -10z"/>
<path d="M8160 4383 c1 -14 40 -56 46 -50 4 3 -6 18 -20 32 -14 14 -26 22 -26
18z"/>
<path d="M4696 5941 c-4 -7 -5 -15 -2 -18 9 -9 19 4 14 18 -4 11 -6 11 -12 0z"/>
<path d="M5112 4828 c8 -13 18 -35 22 -50 3 -16 11 -28 17 -28 8 0 7 5 -1 15
-7 8 -9 22 -6 31 4 10 -2 24 -15 35 -29 25 -34 24 -17 -3z"/>
<path d="M5150 4787 c0 -7 5 -18 12 -25 8 -8 8 -15 0 -24 -12 -15 2 -41 28
-51 9 -3 10 -6 3 -6 -7 -1 -13 -8 -13 -18 0 -14 2 -14 20 2 11 10 20 29 20 42
0 27 -33 76 -44 66 -3 -3 -6 1 -6 10 0 10 -4 17 -10 17 -5 0 -10 -6 -10 -13z"/>
<path d="M8490 4579 c0 -5 5 -7 10 -4 6 3 10 8 10 11 0 2 -4 4 -10 4 -5 0 -10
-5 -10 -11z"/>
</g>
</svg>
